<svg width="130" height="24" viewBox="0 0 130 24" fill="none" xmlns="http://www.w3.org/2000/svg">
<path fill-rule="evenodd" clip-rule="evenodd" d="M20.6161 1.11489C21.3633 1.37523 21.8957 2.04009 21.9864 2.82614L23.8382 18.875H28.3333C31.0017 18.875 32.8302 17.9541 33.9978 16.7244C35.1915 15.4672 35.8177 13.7566 35.8177 12C35.8177 10.2435 35.1915 8.53289 33.9978 7.27566C32.8302 6.04599 31.0017 5.12505 28.3333 5.12505H25.4458L24.8958 1.00006H28.3333C32.0295 1.00006 34.9744 2.31348 36.9891 4.43537C38.9777 6.52969 39.9427 9.28786 39.9427 12C39.9427 14.7122 38.9777 17.4704 36.9891 19.5647C34.9744 21.6866 32.0295 23 28.3333 23H22.0007H22C20.9524 23 20.0712 22.2146 19.9511 21.1739L18.3778 7.53902L7.04186 18.875H16.4875L17.0375 23H2.06256C1.22835 23 0.476293 22.4975 0.157058 21.7268C-0.162177 20.9561 0.0142817 20.069 0.604151 19.4791L18.4791 1.60415C19.0386 1.04464 19.8689 0.85455 20.6161 1.11489Z" fill="url(#paint0_radial)"/>
<path d="M87.0369 8.8584C85.4113 8.8584 84.0049 9.51593 83.1465 10.6301C82.3793 9.42461 81.0643 8.8584 79.4752 8.8584C78.2698 8.8584 77.1739 9.22369 76.3337 9.88123V9.02278H73.1921V19.8356H76.3337V13.2602C76.8268 12.2374 77.6488 11.5799 78.7081 11.5799C79.9684 11.5799 80.7538 12.3835 80.7538 14.1369V19.8356H83.8953C83.8953 19.8356 83.8953 13.4063 83.8953 13.2967C84.3885 12.2557 85.2287 11.5799 86.288 11.5799C87.5483 11.5799 88.3337 12.3835 88.3337 14.1369V19.8356H91.4752V13.6438C91.457 10.3378 89.6122 8.8584 87.0369 8.8584Z" fill="#1A1A1A"/>
<path d="M56.3155 19.8173H59.731L53.4479 5.58899H53.2653H50.2333L43.9502 19.8173H47.3657L48.6808 16.6392H55.0004L56.3155 19.8173ZM49.6853 14.2465L51.8589 9.00451L54.0324 14.2465H49.6853Z" fill="#1A1A1A"/>
<path d="M93.5758 9.02283H96.7173V19.8356H93.5758V9.02283ZM96.973 5.82648C96.973 6.83105 96.1511 7.65296 95.1466 7.65296C94.142 7.65296 93.3201 6.83105 93.3201 5.82648C93.3201 4.82192 94.142 4 95.1466 4C96.1511 4 96.973 4.82192 96.973 5.82648Z" fill="#1A1A1A"/>
<path d="M106.179 19.3058C105.539 19.7625 104.59 19.9816 103.621 19.9816C101.064 19.9816 99.585 18.6848 99.585 16.1095V11.4337H97.9229V9.02274H99.585V6.61179L102.726 5.77161V9.02274H105.411V11.4337H102.726V16.073C102.726 17.0045 103.238 17.4976 104.078 17.4976C104.535 17.4976 105.01 17.3515 105.338 17.0958L106.179 19.3058Z" fill="#1A1A1A"/>
<path d="M111.658 8.8584C109.923 8.8584 108.187 9.31502 107 10.1735L108.133 12.3652C108.918 11.7442 110.105 11.3607 111.256 11.3607C112.936 11.3607 113.74 12.1461 113.74 13.4977C112.955 13.3698 111.913 13.315 111.256 13.315C107.968 13.315 106.617 14.831 106.617 16.7305C106.617 18.5935 108.114 19.9999 110.653 19.9999C112.096 19.9999 113.082 19.6712 113.74 18.9223V19.8356H113.941H116.882V13.662C116.863 10.3744 114.945 8.8584 111.658 8.8584ZM111.42 17.8812C110.324 17.8812 109.649 17.3515 109.649 16.5662C109.649 15.8356 110.105 15.3059 111.585 15.3059C111.585 15.3059 113.009 15.2328 113.74 15.4885C113.74 15.799 113.74 16.2191 113.74 16.2191C113.375 17.2054 112.461 17.8812 111.42 17.8812Z" fill="#1A1A1A"/>
<path d="M67.8771 5.57077V9.80821C67.0187 9.22374 66.0141 8.85844 64.9365 8.85844C61.868 8.85844 59.3657 11.3425 59.3657 14.4292C59.3657 17.516 61.8497 19.9817 64.9365 19.9817C66.0506 19.9817 67.0369 19.5982 67.8771 18.9589V19.8173H71.0187V4.73059L67.8771 5.57077ZM62.489 14.4292C62.489 11.9817 65.1922 10.5205 67.8589 12.5479V16.3653C65.0643 18.4475 62.489 16.7488 62.489 14.4292Z" fill="#1A1A1A"/>
<path d="M126.836 5.57077V9.80821C125.977 9.22374 124.973 8.85844 123.895 8.85844C120.827 8.85844 118.324 11.3425 118.324 14.4292C118.324 17.516 120.808 20 123.895 20C125.009 20 125.996 19.6164 126.836 18.9771V19.8356H129.977V4.73059L126.836 5.57077ZM121.448 14.4292C121.448 11.9817 124.151 10.5205 126.818 12.5479V16.3653C124.023 18.4475 121.448 16.7488 121.448 14.4292Z" fill="#1A1A1A"/>
<defs>
<radialGradient id="paint0_radial" cx="0" cy="0" r="1" gradientUnits="userSpaceOnUse" gradientTransform="translate(32.2227 1) rotate(141.021) scale(34.974 34.9243)">
<stop stop-color="#9D70FF"/>
<stop offset="1" stop-color="#7D1EF5"/>
</radialGradient>
</defs>
</svg>
