<svg xmlns="http://www.w3.org/2000/svg" viewBox="0 0 425.2 127.14"><defs><style>.a{fill:#fff;}</style></defs><title>Ресурс 2</title><path class="a" d="M246,27.89C249.79,12.63,240.54,0,217.82,0L168.63.07,150.21,74.65,160.9,93h35c22.95,0,40.69-10.7,45.28-29.29,2.29-9.52-.36-16.21-6.36-19.53V44A25.92,25.92,0,0,0,246,27.89ZM215.87,63.12C215,67,212.31,71,201.41,71H179.07L183,55H205.2C216.1,55,216.9,59.1,215.87,63.12Zm4.59-34.73c-.8,3-3.1,6.61-12.51,6.61h-20l3.33-13h20C220.8,22,221.26,25.06,220.46,28.39Z"/><polygon class="a" points="276.98 57 321.76 57 326.88 35 282.37 35 285.81 22 329.9 22 335.02 0 262.67 0 239.72 93 321.65 93 327.05 71 273.65 71 276.98 57"/><polygon class="a" points="341.26 0 336.14 22 362.9 22 345.33 93 373.45 93 391.04 22 419.69 22 425.2 0 341.26 0"/><path class="a" d="M29.39,93H1.06L13.33,43.49,16.17,36,8.66,43.3.33,51.75,0,27,29.4,0h22.9Z"/><path class="a" d="M131.71,54.46l-9-15.29L166.49,0H125.67L108.91,16l-.06-.1L52.47,67.82,25.35,93H64l29-25.9,9.75,16.59c3.18,4.18,8,9.3,28,9.3h23.45L131.74,54.44Z"/><path class="a" d="M105.85,10.86l-.13-.22C99.13,1.08,89,0,83.74,0,82.16,0,81.16,0,81.16,0H53.56l22.5,38.28Z"/><path class="a" d="M164.17,112.33a6.53,6.53,0,0,0,.72-2.9,5.12,5.12,0,0,0-1-3.11,5.49,5.49,0,0,0-2.57-2,14.37,14.37,0,0,0-4.67-.57h-12l-6,23h3.84l2.43-9.32h7.18a30.25,30.25,0,0,0,5.58-.52,11.29,11.29,0,0,0,2.43-.72,8.67,8.67,0,0,0,2.24-1.44A7.58,7.58,0,0,0,164.17,112.33Zm-4.09-.06a6.17,6.17,0,0,1-2.76,1.93,16.84,16.84,0,0,1-5.4.63h-6.32l2.23-8.55h7.36a14.2,14.2,0,0,1,3.84.34,3.16,3.16,0,0,1,1.55,1,2.93,2.93,0,0,1,.55,1.84A4.35,4.35,0,0,1,160.08,112.26ZM179,103.79l-16.27,23h4.21l4.6-6.61H183.1l1.39,6.61h3.72l-4.74-23Zm-5.81,14,4.72-6.8a38.77,38.77,0,0,0,2.86-4.68,50.6,50.6,0,0,0,.8,5.72l1.12,5.76Zm45.23-13.51a23,23,0,0,0-5.4-.48h-12l-6,23h3.84l2.66-10.19h4.46a10.65,10.65,0,0,1,3.31.37,4.86,4.86,0,0,1,2,1.54,18.84,18.84,0,0,1,2.54,4l2.06,4.28h4.29l-2.19-4.32a19.69,19.69,0,0,0-2.9-4.18,10.09,10.09,0,0,0-2.37-1.82q5.11-.55,7.4-2.4a5.73,5.73,0,0,0,2.29-4.65,5.17,5.17,0,0,0-1-3.32A5.25,5.25,0,0,0,218.37,104.27Zm-.49,7.29a5.2,5.2,0,0,1-2.15,1.64,11.13,11.13,0,0,1-3.56.78q-1.12.08-4.8.08h-5.31l2-7.75h9.36a12.71,12.71,0,0,1,3.13.27,2.8,2.8,0,0,1,2.06,2.76A3.67,3.67,0,0,1,217.88,111.56Zm11.19-5.15h9.42l-5.3,20.34H237l5.31-20.34h9.34l.69-2.62H229.75Zm45.38,10.88q-.8,3.09-1.33,6-1-2.66-1.72-4.23-1.29-2.69-3.5-6.64l-4.84-8.61h-3.72l-6,23h3.74l3.64-14a47.24,47.24,0,0,0,1.14-5.5,58.11,58.11,0,0,0,3,6.19l7.13,13.26h3.8l6-23H278Zm10.48,9.46h21.91l.69-2.6H289.45l2.08-8H308l.69-2.62H292.21l1.88-7.14H311l.69-2.62H290.94ZM338,104.27a23,23,0,0,0-5.4-.48h-12l-6,23h3.84l2.66-10.19h4.46a10.65,10.65,0,0,1,3.31.37,4.86,4.86,0,0,1,2,1.54,18.85,18.85,0,0,1,2.54,4l2.06,4.28h4.29l-2.19-4.32a19.69,19.69,0,0,0-2.9-4.18,10.09,10.09,0,0,0-2.37-1.82q5.11-.55,7.4-2.4a5.73,5.73,0,0,0,2.29-4.65,5.16,5.16,0,0,0-1-3.32A5.25,5.25,0,0,0,338,104.27Zm-.49,7.29a5.2,5.2,0,0,1-2.15,1.64,11.14,11.14,0,0,1-3.56.78q-1.12.08-4.8.08H321.7l2-7.75h9.36a12.71,12.71,0,0,1,3.13.27,2.8,2.8,0,0,1,2.06,2.76A3.67,3.67,0,0,1,337.51,111.56Zm18.33-4.48a8.94,8.94,0,0,1,4.87-1.13,12,12,0,0,1,3.22.4,6.3,6.3,0,0,1,2.26,1.06,4,4,0,0,1,1.21,1.61,4.29,4.29,0,0,1,.22,1.52l3.7-.24q0-.33,0-.47a5.29,5.29,0,0,0-1.09-3,7.34,7.34,0,0,0-3.49-2.51,16.33,16.33,0,0,0-5.91-.94,17.21,17.21,0,0,0-5.28.75,7.58,7.58,0,0,0-3.55,2.18,4.8,4.8,0,0,0-1.21,3.19,4.36,4.36,0,0,0,.92,2.73,8.55,8.55,0,0,0,2.86,2.22,43.06,43.06,0,0,0,4.62,1.8q4.37,1.5,5.34,2.38a2.66,2.66,0,0,1,1,2,3.38,3.38,0,0,1-1.81,2.76,9.49,9.49,0,0,1-5.26,1.21,13,13,0,0,1-4.19-.6,4.85,4.85,0,0,1-2.53-1.71,4.19,4.19,0,0,1-.76-2.44l0-.8-3.76.28q0,4.42,3.1,6.12a16.4,16.4,0,0,0,8,1.7,17.62,17.62,0,0,0,5.74-.86,9.17,9.17,0,0,0,3.92-2.44,5,5,0,0,0,1.42-3.44,4.52,4.52,0,0,0-.84-2.69,6.78,6.78,0,0,0-2.41-2,35.89,35.89,0,0,0-4.27-1.72q-3.82-1.35-4.84-1.8a5.49,5.49,0,0,1-2-1.31,2.31,2.31,0,0,1-.55-1.51A2.62,2.62,0,0,1,355.84,107.08Z"/></svg>