<svg width="1109" height="128" viewBox="0 0 1109 128" fill="none" xmlns="http://www.w3.org/2000/svg">
<path d="M280.5 17.65V108H296.23V75.76H303.9C324.44 75.76 337.57 66.27 337.57 46.25C337.57 28.05 325.35 17.65 304.03 17.65H280.5ZM304.03 63.54H296.23V29.87H304.55C315.6 29.87 321.58 34.94 321.58 46.25C321.58 58.08 314.95 63.54 304.03 63.54ZM395.423 103.58V90.97C390.613 94.22 382.553 97.08 375.013 97.08C363.703 97.08 359.413 91.75 358.763 80.83H396.073V72.64C396.073 49.89 386.063 41.31 370.593 41.31C351.743 41.31 342.773 55.74 342.773 75.5C342.773 98.25 353.953 109.3 373.713 109.3C383.593 109.3 390.873 106.7 395.423 103.58ZM370.333 53.53C378.003 53.53 380.343 59.9 380.343 68.09V69.39H358.763C359.153 58.99 362.923 53.53 370.333 53.53ZM444.788 108H462.338L437.508 73.29L459.348 42.61H443.748L421.908 73.29V42.61H406.438V108H421.908V76.41L444.788 108ZM463.064 94.61V108C463.064 108 465.534 109.3 469.174 109.3C482.434 109.3 485.814 99.94 486.594 78.23L487.504 54.83H503.234V108H518.704V42.61H474.374L473.074 77.58C472.554 91.49 471.644 95.78 466.574 95.78C464.364 95.78 463.064 94.61 463.064 94.61ZM580.62 63.41C580.62 47.55 572.56 41.57 556.18 41.57C545.91 41.57 537.85 44.82 533.17 47.55V60.42C537.33 57.3 546.43 53.92 554.36 53.92C561.77 53.92 565.15 56.52 565.15 63.54V67.18H562.68C539.02 67.18 528.49 74.98 528.49 88.24C528.49 101.5 536.55 108.91 548.51 108.91C557.61 108.91 561.51 105.92 564.5 102.8H565.15C565.28 104.49 565.8 106.7 566.32 108H581.4C580.88 102.67 580.62 97.34 580.62 92.01V63.41ZM565.15 92.4C563.2 95.26 559.56 97.6 554.1 97.6C547.6 97.6 544.35 93.96 544.35 88.37C544.35 80.96 549.68 78.23 562.94 78.23H565.15V92.4ZM648.829 108H663.909L663.649 42.61H642.459L628.289 86.16L615.549 42.61H593.059V108H606.189V59.12L620.359 108H632.969L648.829 59.12V108ZM712.988 42.61V68.48H692.318V42.61H676.848V108H692.318V80.7H712.988V108H728.458V42.61H712.988ZM790.347 63.41C790.347 47.55 782.287 41.57 765.907 41.57C755.637 41.57 747.577 44.82 742.897 47.55V60.42C747.057 57.3 756.157 53.92 764.087 53.92C771.497 53.92 774.877 56.52 774.877 63.54V67.18H772.407C748.747 67.18 738.217 74.98 738.217 88.24C738.217 101.5 746.277 108.91 758.237 108.91C767.337 108.91 771.237 105.92 774.227 102.8H774.877C775.007 104.49 775.527 106.7 776.047 108H791.127C790.607 102.67 790.347 97.34 790.347 92.01V63.41ZM774.877 92.4C772.927 95.26 769.287 97.6 763.827 97.6C757.327 97.6 754.077 93.96 754.077 88.37C754.077 80.96 759.407 78.23 772.667 78.23H774.877V92.4ZM798.235 108H814.095L826.575 86.68H833.985V108H849.455V42.61H825.795C810.715 42.61 799.925 50.28 799.925 64.32C799.925 74.2 804.605 80.44 812.925 83.3L798.235 108ZM826.965 54.83H833.985V75.37H826.575C819.555 75.37 815.655 72.38 815.655 64.84C815.655 57.69 820.205 54.83 826.965 54.83ZM916.559 109.3C923.709 109.3 928.779 108 932.549 105.27V92.66C928.649 95.39 923.969 97.08 917.469 97.08C906.419 97.08 901.869 88.5 901.869 74.98C901.869 60.81 907.459 53.53 917.599 53.53C923.579 53.53 929.429 55.61 932.549 57.56V44.43C929.299 42.61 923.579 41.31 915.909 41.31C896.149 41.31 885.879 55.48 885.879 75.37C885.879 97.21 895.889 109.3 916.559 109.3ZM990.452 103.58V90.97C985.642 94.22 977.582 97.08 970.042 97.08C958.732 97.08 954.442 91.75 953.792 80.83H991.102V72.64C991.102 49.89 981.092 41.31 965.622 41.31C946.772 41.31 937.802 55.74 937.802 75.5C937.802 98.25 948.982 109.3 968.742 109.3C978.622 109.3 985.902 106.7 990.452 103.58ZM965.362 53.53C973.032 53.53 975.372 59.9 975.372 68.09V69.39H953.792C954.182 58.99 957.952 53.53 965.362 53.53ZM1046.14 54.83V42.61H994.266V54.83H1012.47V108H1027.94V54.83H1046.14ZM1055.29 42.61V108H1078.56C1093.9 108 1104.82 100.2 1104.82 84.86C1104.82 70.3 1095.07 62.63 1078.82 62.63H1070.76V42.61H1055.29ZM1077.65 95.78H1070.76V74.85H1078.04C1084.8 74.85 1088.83 77.84 1088.83 85.38C1088.83 92.92 1084.41 95.78 1077.65 95.78Z" fill="#1B202B"/>
<path d="M188 124C221.137 124 248 97.1371 248 64C248 30.8629 221.137 4 188 4C154.863 4 128 30.8629 128 64C128 97.1371 154.863 124 188 124Z" fill="url(#paint0_linear_1_31)"/>
<path d="M244.491 43.7349L130.309 80.5409C128.805 75.2866 128 69.7373 128 64C128 62.8453 128.033 61.6982 128.097 60.5597L234.617 26.2235C238.829 31.414 242.191 37.3217 244.491 43.7349Z" fill="url(#paint1_linear_1_31)"/>
<path d="M209.146 7.83243C202.678 5.39617 195.678 4.04509 188.369 4.0011L134.547 91.282C137.791 97.6248 142.13 103.314 147.316 108.1L209.146 7.83243Z" fill="url(#paint2_linear_1_31)"/>
<path d="M148.283 108.974C141.637 103.1 136.304 95.7774 132.777 87.4996L236.965 98.684C231.813 105.944 225.087 112.009 217.284 116.381L148.283 108.974Z" fill="url(#paint3_linear_1_31)"/>
<path d="M206 121.253C213.256 118.974 219.918 115.354 225.696 110.682V17.3175C219.918 12.6463 213.256 9.02582 206 6.74677V121.253Z" fill="url(#paint4_linear_1_31)"/>
<path d="M139.497 28.6732C135.613 33.9968 132.584 39.9842 130.613 46.4333L225.924 110.498C231.073 106.292 235.511 101.249 239.03 95.5748L139.497 28.6732Z" fill="url(#paint5_linear_1_31)"/>
<path d="M62.2515 39.4895H67.7334V95.875H78.6973V30.875H62.2515C45.8057 30.875 37.1913 39.4895 37.1913 52.0196C37.1913 62.2003 41.8901 67.6822 50.5045 73.9473L35.625 95.875H48.1551L63.8178 71.5979L58.3358 67.6822C51.2877 62.9834 48.1551 59.0678 48.1551 51.2364C48.1551 44.1883 52.8539 39.4895 62.2515 39.4895Z" fill="#1B202B"/>
<path fill-rule="evenodd" clip-rule="evenodd" d="M120 64C120 97.1371 93.1371 124 60 124C26.8629 124 0 97.1371 0 64C0 30.8629 26.8629 4 60 4C93.1371 4 120 30.8629 120 64ZM109.375 64C109.375 91.2691 87.2691 113.375 60 113.375C32.7309 113.375 10.625 91.2691 10.625 64C10.625 36.7309 32.7309 14.625 60 14.625C87.2691 14.625 109.375 36.7309 109.375 64Z" fill="#1B202B"/>
<defs>
<linearGradient id="paint0_linear_1_31" x1="248" y1="13.5" x2="15.9999" y2="202" gradientUnits="userSpaceOnUse">
<stop stop-color="#4643B9"/>
<stop offset="1" stop-color="#1B202B"/>
</linearGradient>
<linearGradient id="paint1_linear_1_31" x1="415.5" y1="-37.0001" x2="26.1167" y2="151.645" gradientUnits="userSpaceOnUse">
<stop stop-color="#FFEC42"/>
<stop offset="1" stop-color="#FFB800"/>
</linearGradient>
<linearGradient id="paint2_linear_1_31" x1="142" y1="112.5" x2="217.43" y2="-26.4801" gradientUnits="userSpaceOnUse">
<stop stop-color="#515BFF"/>
<stop offset="1" stop-color="#498BFF"/>
</linearGradient>
<linearGradient id="paint3_linear_1_31" x1="235" y1="108.5" x2="104.246" y2="85.4441" gradientUnits="userSpaceOnUse">
<stop stop-color="#515BFF"/>
<stop offset="1" stop-color="#498BFF"/>
</linearGradient>
<linearGradient id="paint4_linear_1_31" x1="209.909" y1="-2.00098" x2="296.752" y2="105.003" gradientUnits="userSpaceOnUse">
<stop stop-color="#FFEC42"/>
<stop offset="1" stop-color="#FFB800"/>
</linearGradient>
<linearGradient id="paint5_linear_1_31" x1="253.564" y1="126.597" x2="64.1975" y2="-47.5841" gradientUnits="userSpaceOnUse">
<stop stop-color="#FFEC42"/>
<stop offset="1" stop-color="#FFB800"/>
</linearGradient>
</defs>
</svg>
